<svg xmlns="http://www.w3.org/2000/svg" viewBox="0 0 1920 1080" preserveAspectRatio="xMidYMid slice">
  <defs>
    <linearGradient id="bg8" x1="100%" y1="0%" x2="0%" y2="100%">
      <stop offset="0%" style="stop-color:#07080F;stop-opacity:1"/>
      <stop offset="50%" style="stop-color:#1a1f3a;stop-opacity:1"/>
      <stop offset="100%" style="stop-color:#0c1230;stop-opacity:1"/>
    </linearGradient>
    <radialGradient id="glow8" cx="65%" cy="50%" r="55%">
      <stop offset="0%" style="stop-color:#B8912C;stop-opacity:0.18"/>
      <stop offset="100%" style="stop-color:#B8912C;stop-opacity:0"/>
    </radialGradient>
  </defs>
  <rect width="1920" height="1080" fill="url(#bg8)"/>
  <rect width="1920" height="1080" fill="url(#glow8)"/>
  <g transform="translate(640,360)" opacity="0.38">
    <rect x="0" y="0" width="640" height="80" rx="40" fill="#F4F4F5" opacity="0.06"/>
    <rect x="40" y="20" width="200" height="40" rx="20" fill="#B8912C" opacity="0.85"/>
    <text x="140" y="46" font-family="sans-serif" font-size="14" fill="#07080F" text-anchor="middle" font-weight="600">CLIENT</text>
    <rect x="260" y="20" width="200" height="40" rx="20" fill="#F4F4F5" opacity="0.10"/>
    <text x="360" y="46" font-family="sans-serif" font-size="14" fill="#F4F4F5" text-anchor="middle">EIGER MARVEL HR</text>
    <text x="520" y="46" font-family="sans-serif" font-size="14" fill="#F4F4F5" text-anchor="middle">CANDIDATE</text>
  </g>
  <g transform="translate(540,500)" opacity="0.30">
    <circle cx="80" cy="80" r="60" fill="#F4F4F5" opacity="0.5"/>
    <text x="80" y="90" font-family="sans-serif" font-size="14" fill="#07080F" text-anchor="middle">CLIENT</text>
  </g>
  <g transform="translate(1280,500)" opacity="0.30">
    <circle cx="80" cy="80" r="60" fill="#B8912C" opacity="0.8"/>
    <text x="80" y="90" font-family="sans-serif" font-size="14" fill="#07080F" text-anchor="middle">CANDIDATE</text>
  </g>
  <g transform="translate(910,540)" opacity="0.45">
    <rect x="0" y="0" width="180" height="80" rx="10" fill="#B8912C"/>
    <text x="90" y="38" font-family="sans-serif" font-size="16" fill="#07080F" text-anchor="middle" font-weight="700">EIGER MARVEL</text>
    <text x="90" y="58" font-family="sans-serif" font-size="11" fill="#07080F" text-anchor="middle" letter-spacing="2">HR PARTNER</text>
  </g>
  <g stroke="#B8912C" stroke-width="2" fill="none" opacity="0.4">
    <path d="M620 580 Q 800 540 910 580"/>
    <path d="M1090 580 Q 1200 540 1280 580"/>
  </g>
  <text x="120" y="1020" font-family="sans-serif" font-size="18" fill="#B8912C" opacity="0.6" letter-spacing="3">CONNECTING TALENT</text>
</svg>