<svg xmlns="http://www.w3.org/2000/svg" viewBox="0 0 1920 1080" preserveAspectRatio="xMidYMid slice">
  <defs>
    <linearGradient id="bg1" x1="0%" y1="0%" x2="100%" y2="100%">
      <stop offset="0%" style="stop-color:#07080F;stop-opacity:1"/>
      <stop offset="50%" style="stop-color:#1a1f3a;stop-opacity:1"/>
      <stop offset="100%" style="stop-color:#07080F;stop-opacity:1"/>
    </linearGradient>
    <radialGradient id="glow1" cx="30%" cy="40%" r="50%">
      <stop offset="0%" style="stop-color:#B8912C;stop-opacity:0.18"/>
      <stop offset="100%" style="stop-color:#B8912C;stop-opacity:0"/>
    </radialGradient>
  </defs>
  <rect width="1920" height="1080" fill="url(#bg1)"/>
  <rect width="1920" height="1080" fill="url(#glow1)"/>
  <g opacity="0.08" stroke="#B8912C" stroke-width="1.5" fill="none">
    <circle cx="960" cy="540" r="280"/>
    <circle cx="960" cy="540" r="200"/>
    <circle cx="960" cy="540" r="120"/>
  </g>
  <g transform="translate(860,440)" opacity="0.35">
    <circle cx="100" cy="100" r="40" fill="#F4F4F5"/>
    <path d="M100 60 a40 40 0 0 1 40 40 v60 h-80 v-60 a40 40 0 0 1 40 -40 z" fill="#F4F4F5"/>
    <path d="M50 170 q50 -30 100 0 v40 h-100 z" fill="#F4F4F5"/>
  </g>
  <g transform="translate(700,300)" opacity="0.18">
    <circle cx="60" cy="60" r="28" fill="#B8912C"/>
    <circle cx="60" cy="60" r="38" stroke="#B8912C" stroke-width="1" fill="none"/>
  </g>
  <g transform="translate(1180,720)" opacity="0.18">
    <circle cx="60" cy="60" r="28" fill="#B8912C"/>
    <circle cx="60" cy="60" r="38" stroke="#B8912C" stroke-width="1" fill="none"/>
  </g>
  <g opacity="0.12" stroke="#F4F4F5" stroke-width="0.5">
    <line x1="0" y1="900" x2="1920" y2="900"/>
    <line x1="0" y1="180" x2="1920" y2="180"/>
  </g>
  <text x="120" y="1020" font-family="sans-serif" font-size="18" fill="#B8912C" opacity="0.6" letter-spacing="3">RECRUITMENT • TALENT • UAE</text>
</svg>