<svg xmlns="http://www.w3.org/2000/svg" viewBox="0 0 1920 1080" preserveAspectRatio="xMidYMid slice">
  <defs>
    <linearGradient id="bg3" x1="100%" y1="0%" x2="0%" y2="100%">
      <stop offset="0%" style="stop-color:#0c1230;stop-opacity:1"/>
      <stop offset="50%" style="stop-color:#1a1f3a;stop-opacity:1"/>
      <stop offset="100%" style="stop-color:#07080F;stop-opacity:1"/>
    </linearGradient>
    <radialGradient id="glow3" cx="50%" cy="35%" r="50%">
      <stop offset="0%" style="stop-color:#B8912C;stop-opacity:0.16"/>
      <stop offset="100%" style="stop-color:#B8912C;stop-opacity:0"/>
    </radialGradient>
  </defs>
  <rect width="1920" height="1080" fill="url(#bg3)"/>
  <rect width="1920" height="1080" fill="url(#glow3)"/>
  <g transform="translate(760,400)" opacity="0.32">
    <rect x="0" y="0" width="400" height="50" rx="25" fill="none" stroke="#F4F4F5" stroke-width="1.5"/>
    <circle cx="25" cy="25" r="10" fill="#B8912C"/>
    <text x="60" y="32" font-family="sans-serif" font-size="16" fill="#F4F4F5">Search candidates...</text>
  </g>
  <g transform="translate(760,500)" opacity="0.30">
    <rect x="0" y="0" width="180" height="220" rx="10" fill="#0e1430" stroke="#F4F4F5" stroke-width="1"/>
    <circle cx="90" cy="70" r="32" fill="#F4F4F5" opacity="0.85"/>
    <path d="M90 35 a32 32 0 0 1 32 32 v28 h-64 v-28 a32 32 0 0 1 32 -32 z" fill="#F4F4F5" opacity="0.85"/>
    <line x1="20" y1="130" x2="160" y2="130" stroke="#F4F4F5" stroke-width="1" opacity="0.4"/>
    <line x1="20" y1="150" x2="140" y2="150" stroke="#F4F4F5" stroke-width="1" opacity="0.4"/>
    <line x1="20" y1="170" x2="150" y2="170" stroke="#F4F4F5" stroke-width="1" opacity="0.4"/>
    <rect x="20" y="190" width="60" height="18" rx="9" fill="#B8912C"/>
  </g>
  <g transform="translate(960,500)" opacity="0.30">
    <rect x="0" y="0" width="180" height="220" rx="10" fill="#0e1430" stroke="#B8912C" stroke-width="1.5"/>
    <circle cx="90" cy="70" r="32" fill="#B8912C" opacity="0.85"/>
    <path d="M90 35 a32 32 0 0 1 32 32 v28 h-64 v-28 a32 32 0 0 1 32 -32 z" fill="#B8912C" opacity="0.85"/>
    <line x1="20" y1="130" x2="160" y2="130" stroke="#F4F4F5" stroke-width="1" opacity="0.4"/>
    <line x1="20" y1="150" x2="140" y2="150" stroke="#F4F4F5" stroke-width="1" opacity="0.4"/>
    <line x1="20" y1="170" x2="150" y2="170" stroke="#F4F4F5" stroke-width="1" opacity="0.4"/>
    <rect x="20" y="190" width="60" height="18" rx="9" fill="#B8912C"/>
  </g>
  <g transform="translate(1160,500)" opacity="0.30">
    <rect x="0" y="0" width="180" height="220" rx="10" fill="#0e1430" stroke="#F4F4F5" stroke-width="1"/>
    <circle cx="90" cy="70" r="32" fill="#F4F4F5" opacity="0.85"/>
    <path d="M90 35 a32 32 0 0 1 32 32 v28 h-64 v-28 a32 32 0 0 1 32 -32 z" fill="#F4F4F5" opacity="0.85"/>
    <line x1="20" y1="130" x2="160" y2="130" stroke="#F4F4F5" stroke-width="1" opacity="0.4"/>
    <line x1="20" y1="150" x2="140" y2="150" stroke="#F4F4F5" stroke-width="1" opacity="0.4"/>
    <line x1="20" y1="170" x2="150" y2="170" stroke="#F4F4F5" stroke-width="1" opacity="0.4"/>
    <rect x="20" y="190" width="60" height="18" rx="9" fill="#B8912C"/>
  </g>
  <text x="120" y="1020" font-family="sans-serif" font-size="18" fill="#B8912C" opacity="0.6" letter-spacing="3">TALENT DATABASE</text>
</svg>