<svg xmlns="http://www.w3.org/2000/svg" viewBox="0 0 1920 1080" preserveAspectRatio="xMidYMid slice">
  <defs>
    <linearGradient id="bg6" x1="50%" y1="0%" x2="50%" y2="100%">
      <stop offset="0%" style="stop-color:#07080F;stop-opacity:1"/>
      <stop offset="50%" style="stop-color:#1a1f3a;stop-opacity:1"/>
      <stop offset="100%" style="stop-color:#07080F;stop-opacity:1"/>
    </linearGradient>
    <radialGradient id="glow6" cx="50%" cy="50%" r="55%">
      <stop offset="0%" style="stop-color:#B8912C;stop-opacity:0.12"/>
      <stop offset="100%" style="stop-color:#B8912C;stop-opacity:0"/>
    </radialGradient>
  </defs>
  <rect width="1920" height="1080" fill="url(#bg6)"/>
  <rect width="1920" height="1080" fill="url(#glow6)"/>
  <g transform="translate(700,300)" opacity="0.38">
    <circle cx="260" cy="260" r="220" fill="none" stroke="#B8912C" stroke-width="2"/>
    <circle cx="260" cy="260" r="160" fill="none" stroke="#F4F4F5" stroke-width="1.5"/>
    <circle cx="260" cy="260" r="100" fill="none" stroke="#F4F4F5" stroke-width="1"/>
    <circle cx="260" cy="260" r="40" fill="#B8912C"/>
    <g transform="translate(240,220)">
      <path d="M0 40 Q 20 -10 40 40" fill="none" stroke="#07080F" stroke-width="3" stroke-linecap="round"/>
    </g>
    <g transform="translate(120,120)">
      <circle cx="20" cy="20" r="14" fill="#F4F4F5"/>
      <text x="20" y="26" font-family="sans-serif" font-size="14" fill="#07080F" text-anchor="middle" font-weight="700">✓</text>
    </g>
    <g transform="translate(380,180)">
      <circle cx="20" cy="20" r="14" fill="#F4F4F5"/>
      <text x="20" y="26" font-family="sans-serif" font-size="14" fill="#07080F" text-anchor="middle" font-weight="700">★</text>
    </g>
    <g transform="translate(380,380)">
      <circle cx="20" cy="20" r="14" fill="#F4F4F5"/>
      <text x="20" y="26" font-family="sans-serif" font-size="14" fill="#07080F" text-anchor="middle" font-weight="700">✓</text>
    </g>
    <g transform="translate(120,380)">
      <circle cx="20" cy="20" r="14" fill="#F4F4F5"/>
      <text x="20" y="26" font-family="sans-serif" font-size="14" fill="#07080F" text-anchor="middle" font-weight="700">★</text>
    </g>
  </g>
  <text x="120" y="1020" font-family="sans-serif" font-size="18" fill="#B8912C" opacity="0.6" letter-spacing="3">QUALITY ASSURED</text>
</svg>