<svg xmlns="http://www.w3.org/2000/svg" viewBox="0 0 1920 1080" preserveAspectRatio="xMidYMid slice">
  <defs>
    <linearGradient id="bg2" x1="0%" y1="0%" x2="100%" y2="100%">
      <stop offset="0%" style="stop-color:#0a0e1f;stop-opacity:1"/>
      <stop offset="60%" style="stop-color:#1f2547;stop-opacity:1"/>
      <stop offset="100%" style="stop-color:#07080F;stop-opacity:1"/>
    </linearGradient>
    <radialGradient id="glow2" cx="70%" cy="50%" r="55%">
      <stop offset="0%" style="stop-color:#D4A84B;stop-opacity:0.14"/>
      <stop offset="100%" style="stop-color:#D4A84B;stop-opacity:0"/>
    </radialGradient>
  </defs>
  <rect width="1920" height="1080" fill="url(#bg2)"/>
  <rect width="1920" height="1080" fill="url(#glow2)"/>
  <g transform="translate(1200,360)" opacity="0.32">
    <rect x="0" y="0" width="500" height="360" rx="12" fill="none" stroke="#F4F4F5" stroke-width="1.5"/>
    <line x1="40" y1="80" x2="460" y2="80" stroke="#F4F4F5" stroke-width="1" opacity="0.5"/>
    <line x1="40" y1="140" x2="380" y2="140" stroke="#F4F4F5" stroke-width="1" opacity="0.3"/>
    <line x1="40" y1="180" x2="420" y2="180" stroke="#F4F4F5" stroke-width="1" opacity="0.3"/>
    <line x1="40" y1="220" x2="340" y2="220" stroke="#F4F4F5" stroke-width="1" opacity="0.3"/>
    <line x1="40" y1="260" x2="400" y2="260" stroke="#F4F4F5" stroke-width="1" opacity="0.3"/>
    <circle cx="60" cy="50" r="18" fill="#B8912C"/>
    <rect x="40" y="300" width="120" height="36" rx="6" fill="#B8912C"/>
    <text x="100" y="324" font-family="sans-serif" font-size="14" fill="#07080F" text-anchor="middle" font-weight="600">APPLY NOW</text>
  </g>
  <g transform="translate(300,500)" opacity="0.25">
    <circle cx="80" cy="80" r="60" fill="#F4F4F5"/>
    <path d="M80 30 a50 50 0 0 1 50 50 v70 h-100 v-70 a50 50 0 0 1 50 -50 z" fill="#F4F4F5"/>
    <path d="M20 220 q60 -40 120 0 v40 h-120 z" fill="#F4F4F5"/>
  </g>
  <g opacity="0.15" stroke="#D4A84B" stroke-width="1" fill="none">
    <path d="M0 200 Q 480 100 960 200 T 1920 200"/>
    <path d="M0 880 Q 480 980 960 880 T 1920 880"/>
  </g>
  <text x="120" y="1020" font-family="sans-serif" font-size="18" fill="#D4A84B" opacity="0.6" letter-spacing="3">CANDIDATE PLACEMENT</text>
</svg>