<svg xmlns="http://www.w3.org/2000/svg" viewBox="0 0 1920 1080" preserveAspectRatio="xMidYMid slice">
  <defs>
    <linearGradient id="bg7" x1="0%" y1="0%" x2="100%" y2="100%">
      <stop offset="0%" style="stop-color:#0a0e1f;stop-opacity:1"/>
      <stop offset="50%" style="stop-color:#1f2547;stop-opacity:1"/>
      <stop offset="100%" style="stop-color:#07080F;stop-opacity:1"/>
    </linearGradient>
    <radialGradient id="glow7" cx="40%" cy="40%" r="55%">
      <stop offset="0%" style="stop-color:#D4A84B;stop-opacity:0.16"/>
      <stop offset="100%" style="stop-color:#D4A84B;stop-opacity:0"/>
    </radialGradient>
  </defs>
  <rect width="1920" height="1080" fill="url(#bg7)"/>
  <rect width="1920" height="1080" fill="url(#glow7)"/>
  <g transform="translate(320,300)" opacity="0.35">
    <path d="M0 240 Q 200 80 400 240 Q 600 400 800 240" fill="none" stroke="#B8912C" stroke-width="3"/>
    <path d="M0 320 Q 200 160 400 320 Q 600 480 800 320" fill="none" stroke="#F4F4F5" stroke-width="2" opacity="0.5"/>
    <circle cx="200" cy="160" r="14" fill="#B8912C"/>
    <circle cx="400" cy="240" r="18" fill="#D4A84B"/>
    <circle cx="600" cy="380" r="14" fill="#B8912C"/>
  </g>
  <g transform="translate(1300,400)" opacity="0.32">
    <rect x="0" y="0" width="320" height="220" rx="10" fill="none" stroke="#F4F4F5" stroke-width="1.5"/>
    <rect x="20" y="20" width="280" height="40" rx="6" fill="#F4F4F5" opacity="0.15"/>
    <text x="40" y="46" font-family="sans-serif" font-size="14" fill="#B8912C" letter-spacing="2">PROGRESS</text>
    <rect x="20" y="80" width="280" height="14" rx="7" fill="#F4F4F5" opacity="0.15"/>
    <rect x="20" y="80" width="220" height="14" rx="7" fill="#B8912C" opacity="0.85"/>
    <text x="40" y="130" font-family="sans-serif" font-size="12" fill="#F4F4F5" opacity="0.7">Step 4 of 5</text>
    <text x="40" y="170" font-family="sans-serif" font-size="22" fill="#F4F4F5" font-weight="600">78%</text>
    <text x="100" y="170" font-family="sans-serif" font-size="14" fill="#B8912C">complete</text>
  </g>
  <g opacity="0.12" stroke="#F4F4F5" stroke-width="0.5">
    <line x1="0" y1="200" x2="1920" y2="200"/>
    <line x1="0" y1="880" x2="1920" y2="880"/>
  </g>
  <text x="120" y="1020" font-family="sans-serif" font-size="18" fill="#B8912C" opacity="0.6" letter-spacing="3">PROCESS EXCELLENCE</text>
</svg>